<svg width="128" height="128" viewBox="0 0 128 128" fill="none" xmlns="http://www.w3.org/2000/svg">
<path d="M97.4519 53.7589L74.3892 71.0903C69.2922 74.9174 68.3023 82.1231 72.1567 87.1599C76.0215 92.1966 83.2983 93.1873 88.3848 89.3498L111.448 72.0184C116.534 68.1913 117.534 60.9856 113.67 55.9488C109.805 50.9121 102.528 49.9214 97.4414 53.7485L97.4519 53.7589ZM110.321 70.5481L87.258 87.8794C82.9929 91.0808 76.885 90.2674 73.652 86.0441C70.419 81.8207 71.2615 75.7725 75.5266 72.5711L98.5892 55.2397C102.854 52.0383 108.952 52.8621 112.195 57.0855C115.428 61.3088 114.596 67.3466 110.331 70.5585L110.321 70.5481Z" fill="black"/>
<path d="M112.185 57.0855C115.418 61.3088 114.586 67.3466 110.321 70.5585L87.258 87.8898C82.9929 91.0912 76.885 90.2778 73.652 86.0545C70.419 81.8311 71.2616 75.7829 75.5266 72.5815L98.5892 55.2501C102.854 52.0487 108.952 52.8725 112.195 57.0959L112.185 57.0855Z" fill="#F9AB00"/>
<path d="M111.005 53.446L87.1527 37.1991C81.8872 33.6119 74.663 34.9362 71.0404 40.1502C67.4283 45.3642 68.7657 52.5179 74.0312 56.1051L97.8837 72.3519C103.149 75.9288 110.373 74.6044 113.985 69.4008C117.598 64.1868 116.26 57.0332 111.005 53.4564V53.446ZM98.9473 70.819L75.0948 54.5722C70.6823 51.5689 69.5555 45.5728 72.5884 41.2035C75.6213 36.8341 81.6872 35.7287 86.0996 38.732L109.952 54.9789C114.365 57.9821 115.481 63.9783 112.448 68.3476C109.415 72.7169 103.36 73.8223 98.9473 70.819Z" fill="black"/>
<path d="M112.448 68.3372C109.415 72.7065 103.36 73.8119 98.9473 70.8086L75.0947 54.5617C70.6823 51.5585 69.5555 45.5624 72.5884 41.193C75.6213 36.8237 81.6871 35.7183 86.0996 38.7216L109.952 54.9684C114.365 57.9717 115.481 63.9678 112.448 68.3372Z" fill="#34A853"/>
<path d="M31.2967 73.1229L54.3594 55.7915C59.4563 51.9645 60.4463 44.7587 56.5919 39.722C52.7271 34.6852 45.4503 33.6946 40.3638 37.5321L17.3011 54.8635C12.2147 58.6905 11.2142 65.8963 15.0791 70.933C18.9439 75.9698 26.2208 76.9604 31.3072 73.1333L31.2967 73.1229ZM18.4279 56.3338L41.4906 39.0024C45.7557 35.801 51.8636 36.6144 55.0966 40.8378C58.3296 45.0611 57.4871 51.1094 53.222 54.3108L30.1594 71.6421C25.8943 74.8435 19.797 74.0197 16.5534 69.7964C13.3204 65.573 14.1523 59.5352 18.4174 56.3234L18.4279 56.3338Z" fill="black"/>
<path d="M16.5639 69.7971C13.3309 65.5738 14.1629 59.5359 18.4279 56.3241L41.4907 38.9927C45.7557 35.7913 51.8636 36.6047 55.0966 40.8281C58.3296 45.0514 57.4871 51.0997 53.222 54.3011L30.1594 71.6324C25.8944 74.8338 19.797 74.01 16.5535 69.7867L16.5639 69.7971Z" fill="#EE4235"/>
<path d="M17.7433 73.4367L41.5959 89.6836C46.8613 93.2708 54.0855 91.9465 57.7082 86.7324C61.3203 81.5184 59.9829 74.3648 54.7174 70.7776L30.8649 54.5307C25.5994 50.9539 18.3752 52.2783 14.7631 57.4818C11.151 62.6959 12.4884 69.8495 17.7433 73.4263V73.4367ZM29.8012 56.0636L53.6538 72.3105C58.0662 75.3138 59.1931 81.3099 56.1602 85.6792C53.1273 90.0485 47.0614 91.1539 42.649 88.1506L18.7964 71.9038C14.384 68.9005 13.2677 62.9044 16.3006 58.5351C19.3335 54.1657 25.3888 53.0604 29.8012 56.0636Z" fill="black"/>
<path d="M16.3007 58.5351C19.3336 54.1657 25.3889 53.0604 29.8013 56.0636L53.6539 72.3105C58.0663 75.3138 59.1931 81.3099 56.1602 85.6792C53.1273 90.0485 47.0615 91.1539 42.649 88.1506L18.7965 71.9038C14.384 68.9005 13.2678 62.9044 16.3007 58.5351Z" fill="#4285F4"/>
</svg>
